<svg xmlns="http://www.w3.org/2000/svg" width="128" height="128" viewBox="0 0 128 128">
  <rect width="128" height="128" rx="24" fill="#000000"/>
  <path d="M96.5 67.2c-.1-8.1 4.4-12.8 4.6-13 .2-.2-1.1-4.2-3.5-8.5-2.1-3.8-5.4-7.4-5.4-7.4s-4.1 2.4-8.3 2.4c-4.2 0-8.3-2.4-8.3-2.4s-3.3 3.6-5.4 7.4c-2.4 4.3-3.7 8.3-3.5 8.5.2.2 4.7 4.9 4.6 13-.1 8.1-6.4 10.8-6.4 10.8s1.6 5.1 6.1 9.6c3.1 3.6 6.7 7.2 12.1 7.2s9-3.6 12.1-7.2c4.5-4.5 6.1-9.6 6.1-9.6s-6.3-2.7-6.4-10.8z" fill="#ffffff"/>
  <path d="M84.5 45.5c2.1-2.5 3.5-6 3.1-9.5-.3-.1-.7-.2-1.1-.2-2.1 0-4.3 1.4-5.6 3.1-1.2 1.4-2.3 3.7-2 6.1.3 2.4 2.1 4.4 3.6 4.4.3 0 .6-.1.9-.2.1 0 .1 0 .1-.1z" fill="#ffffff"/>
</svg>
